Coordinates
version=1
nRows=12
nColumns=46
inDegrees=yes

Units are S.I. units (second, meters, Newtons, ...)
Angles are in degrees.

endheader
time	pelvis_tilt	pelvis_list	pelvis_rotation	pelvis_tx	pelvis_ty	pelvis_tz	bb_angle	bb_tx	bb_ty	bb_tz	hip_flexion_r	hip_adduction_r	hip_rotation_r	knee_angle_r	knee_angle_r_beta	ankle_angle_r	subtalar_angle_r	mtp_angle_r	crank_angle_r	hip_flexion_l	hip_adduction_l	hip_rotation_l	knee_angle_l	knee_angle_l_beta	ankle_angle_l	subtalar_angle_l	mtp_angle_l	crank_angle_l	lumbar_extension	lumbar_bending	lumbar_rotation	arm_flex_r	arm_add_r	arm_rot_r	elbow_flex_r	pro_sup_r	wrist_flex_r	wrist_dev_r	arm_flex_l	arm_add_l	arm_rot_l	elbow_flex_l	pro_sup_l	wrist_flex_l	wrist_dev_l
      2.50500000	    -17.51351460	     -2.08364380	     -4.29984631	      0.13765613	      1.14898333	     -0.23964854	      0.00000000	      0.50000000	      0.00000000	      0.25000000	     75.43103253	     -7.53822542	     -5.83429470	     99.55215201	      1.73751283	    -14.31341176	     -4.59237584	      0.00000000	      0.00000000	     58.05415751	     -5.30391999	      8.08201693	     48.45030642	      0.84561737	     14.72000793	    -11.17970237	      0.00000000	      0.00000000	    -61.75614186	     -2.18371972	      7.67726984	     89.71919581	    -14.86412497	     22.32856707	     55.09209416	     27.41283956	      0.00000000	      0.00000000	     88.83806248	      2.90478665	     14.29974408	     52.93781961	     27.89552887	      0.00000000	      0.00000000
      2.51000000	    -17.82688679	     -2.47685904	     -4.38762549	      0.13957408	      1.14851204	     -0.23971475	      0.00000000	      0.50000000	      0.00000000	      0.25000000	     76.15603101	     -7.54715142	     -6.24256849	    100.26188403	      1.74989999	    -14.19985519	     -4.52061301	      0.00000000	      0.00000000	     57.33668672	     -5.63249306	      8.32560516	     47.16345607	      0.82315760	     14.75817374	    -11.16370610	      0.00000000	      0.00000000	    -61.63907068	     -1.88156234	      8.06158087	     89.71339615	    -14.84486967	     22.34065540	     55.38140495	     27.45893738	      0.00000000	      0.00000000	     88.60250232	      2.95280930	     14.06131911	     53.19394359	     27.95861406	      0.00000000	      0.00000000
      2.51500000	    -17.99369501	     -2.81482785	     -4.37955074	      0.14140993	      1.14844782	     -0.24008731	      0.00000000	      0.50000000	      0.00000000	      0.25000000	     76.72763165	     -7.73023012	     -6.63677007	    100.97216368	      1.76229671	    -13.96576918	     -4.21424412	      0.00000000	      0.00000000	     56.42038694	     -5.75199692	      8.71041207	     45.76452543	      0.79874165	     14.31015510	    -11.89242704	      0.00000000	      0.00000000	    -61.89515715	     -1.54901006	      8.35816309	     89.70070278	    -15.23332342	     22.45897926	     56.74628079	     27.60752445	      0.00000000	      0.00000000	     87.94612584	      3.65135770	     11.73063095	     55.03934933	     28.54128548	      0.00000000	      0.00000000
      2.52000000	    -18.28308351	     -3.19862200	     -4.50840042	      0.14321095	      1.14806590	     -0.23988081	      0.00000000	      0.50000000	      0.00000000	      0.25000000	     77.43988420	     -7.64298633	     -6.99409229	    101.63851829	      1.77392679	    -13.88929027	     -4.18249002	      0.00000000	      0.00000000	     55.70393228	     -6.15781516	      8.84580126	     44.52863595	      0.77717131	     14.36073261	    -11.78257317	      0.00000000	      0.00000000	    -61.79020762	     -1.23900650	      8.81183075	     89.70325507	    -15.09957289	     22.48942304	     56.88080576	     27.62379340	      0.00000000	      0.00000000	     87.76376296	      3.64445411	     11.61283637	     55.13775191	     28.58115598	      0.00000000	      0.00000000
      2.52500000	    -18.52456181	     -3.56847940	     -4.59914262	      0.14497531	      1.14776964	     -0.23977582	      0.00000000	      0.50000000	      0.00000000	      0.25000000	     78.12602506	     -7.63593049	     -7.39749129	    102.30756904	      1.78560393	    -13.80085438	     -4.23004756	      0.00000000	      0.00000000	     54.95965193	     -6.53338479	      8.95522407	     43.32187749	      0.75610940	     14.28496680	    -11.69086500	      0.00000000	      0.00000000	    -61.67476730	     -0.91336906	      9.25407311	     89.69031989	    -14.94545094	     22.53201433	     57.02723192	     27.64775385	      0.00000000	      0.00000000	     87.53857971	      3.64156947	     11.44847965	     55.31592358	     28.63267672	      0.00000000	      0.00000000
      2.53000000	    -18.72658210	     -3.93591365	     -4.61882297	      0.14681508	      1.14813716	     -0.24007401	      0.00000000	      0.50000000	      0.00000000	      0.25000000	     78.65273206	     -7.72304069	     -7.82051371	    102.81211450	      1.79440991	    -13.69660873	     -4.23006542	      0.00000000	      0.00000000	     54.03910284	     -6.75932997	      9.29533984	     41.83327877	      0.73012845	     13.69842366	    -12.36338658	      0.00000000	      0.00000000	    -61.79532044	     -0.47461377	      9.31541969	     89.70038768	    -14.52004383	     22.49921981	     57.61536576	     27.66421432	      0.00000000	      0.00000000	     86.57022353	      3.86610153	      9.51666948	     57.29477251	     29.32506414	      0.00000000	      0.00000000
      2.53500000	    -18.88867092	     -4.27508161	     -4.69466083	      0.14835032	      1.14820017	     -0.23969765	      0.00000000	      0.50000000	      0.00000000	      0.25000000	     79.25187730	     -7.67166912	     -8.16769158	    103.40917383	      1.80483056	    -13.64034302	     -4.27346987	      0.00000000	      0.00000000	     53.22364887	     -7.13652733	      9.39439582	     40.62133251	      0.70897600	     13.48541363	    -12.14033531	      0.00000000	      0.00000000	    -61.73623517	     -0.15432987	      9.68753092	     89.70164630	    -14.27555849	     22.55796843	     57.73381635	     27.67929888	      0.00000000	      0.00000000	     86.31326741	      3.76917743	      9.45504696	     57.28337976	     29.37013353	      0.00000000	      0.00000000
      2.54000000	    -19.11566878	     -4.60765358	     -4.79298475	      0.14991904	      1.14818909	     -0.23969770	      0.00000000	      0.50000000	      0.00000000	      0.25000000	     79.93340128	     -7.63744851	     -8.47895206	    103.96940308	      1.81460841	    -13.58651959	     -4.29166119	      0.00000000	      0.00000000	     52.50519699	     -7.51141158	      9.36650802	     39.45621165	      0.68864080	     13.23344637	    -12.01565454	      0.00000000	      0.00000000	    -61.63472851	      0.22291516	     10.11107019	     89.70578656	    -14.00304044	     22.63751875	     57.84972369	     27.69333588	      0.00000000	      0.00000000	     86.19685862	      3.61481674	      9.38691574	     57.32317110	     29.40634423	      0.00000000	      0.00000000
      2.54500000	    -19.22774383	     -4.88840494	     -4.85637951	      0.15175878	      1.14883974	     -0.23984565	      0.00000000	      0.50000000	      0.00000000	      0.25000000	     80.44235145	     -7.70819005	     -8.78392932	    104.46435823	      1.82324700	    -13.58981415	     -4.31313967	      0.00000000	      0.00000000	     51.53116081	     -7.76642613	      9.46086068	     38.06737114	      0.66440096	     12.47909206	    -12.57410544	      0.00000000	      0.00000000	    -61.69698371	      0.63131968	     10.05000344	     89.71078885	    -13.18124323	     22.71922852	     57.87133827	     27.64967939	      0.00000000	      0.00000000	     85.81337871	      2.91196695	      9.23908583	     57.94614589	     29.74829843	      0.00000000	      0.00000000
      2.55000000	    -19.45563660	     -5.23657585	     -4.97461979	      0.15320777	      1.14909160	     -0.23972243	      0.00000000	      0.50000000	      0.00000000	      0.25000000	     81.11117437	     -7.61765416	     -9.09850499	    104.93463368	      1.83145486	    -13.58241772	     -4.27478996	      0.00000000	      0.00000000	     50.87350021	     -8.21286885	      9.37311029	     37.00014648	      0.64577438	     12.11679889	    -12.27703614	      0.00000000	      0.00000000	    -61.58767783	      0.99169741	     10.42252009	     89.70884352	    -12.85362687	     22.79510999	     57.91581739	     27.65313133	      0.00000000	      0.00000000	     85.65923274	      2.69301316	      9.23812216	     57.95398022	     29.80158801	      0.00000000	      0.00000000
      2.55500000	    -19.66089008	     -5.53413640	     -5.06059053	      0.15478751	      1.14945080	     -0.23969211	      0.00000000	      0.50000000	      0.00000000	      0.25000000	     81.76391235	     -7.59726477	     -9.37842302	    105.40789796	      1.83971488	    -13.58013369	     -4.26486854	      0.00000000	      0.00000000	     50.22350686	     -8.59930323	      9.17149339	     36.00796388	      0.62845753	     11.69784041	    -12.01123618	      0.00000000	      0.00000000	    -61.51429061	      1.40716688	     10.79811126	     89.71281138	    -12.53253485	     22.88064836	     57.96231992	     27.65793901	      0.00000000	      0.00000000	     85.58809069	      2.42852635	      9.22971186	     57.94775429	     29.83371000	      0.00000000	      0.00000000
      2.56000000	    -19.80436933	     -5.81563451	     -5.18638768	      0.15646699	      1.15024481	     -0.23961077	      0.00000000	      0.50000000	      0.00000000	      0.25000000	     82.31684834	     -7.51491342	     -9.61580926	    105.80887169	      1.84671319	    -13.61509242	     -4.22376686	      0.00000000	      0.00000000	     49.42371022	     -8.99590256	      9.00976743	     34.85579597	      0.60834840	     11.05607768	    -11.81945625	      0.00000000	      0.00000000	    -61.47483044	      1.74280141	     10.95481708	     89.71321038	    -12.00110733	     23.00080848	     57.97298648	     27.64937223	      0.00000000	      0.00000000	     85.37893789	      1.96086243	      9.29332355	     57.88809870	     29.88537987	      0.00000000	      0.00000000
